# xmcd
#
# Track frame offsets:
#	150
#	24123
#	48153
#	77147
#	114895
#	139291
#	168245
#	194331
#	217841
#	245182
#	275607
#	304372
#
# Disc length: 4425 seconds
#
# Revision: 0
# Processed by: cddbd v1.5.2PL0 Copyright (c) Steve Scherf et al.
# Submitted via: EasyCDDAExtractor 2010.6.0.0
#
DISCID=a211470c
DTITLE=Various Artist - Dance Classics - Italo Edition Vol. 2 cd 2
DYEAR=2012
DGENRE=Dance
TTITLE0=Fun Fun - Living In Japan (Extended Version)
TTITLE1=Wired - To The Beat Of The Drum (On The Drum Mix)
TTITLE2=Max Him - Japanese Girl (Remix)
TTITLE3=Ken Lazlo - Hey Hey Guy (Special Nunk Remix)
TTITLE4=Silver Pozzoli - Chica Boom (Extended Version)
TTITLE5=Mike Mareen - Love Spy (The Badman Mix)
TTITLE6=Off - Electric Salsa (Extended Version)
TTITLE7=Meccano - Activate My Heart (Original 12'' Mix)
TTITLE8=Spagna - Call Me (Extended Version)
TTITLE9=Advance - Take Me To The Top (12 Inch Mix)
TTITLE10=La Bionda - One For You, One For Me (Extended Version)
TTITLE11=Premio Nobel - Baby Doll (12 Inch Version)
EXTD=
EXTT0=
EXTT1=
EXTT2=
EXTT3=
EXTT4=
EXTT5=
EXTT6=
EXTT7=
EXTT8=
EXTT9=
EXTT10=
EXTT11=
PLAYORDER=
